<?xml version="1.0" encoding="UTF-8" standalone="no"?>
<!DOCTYPE svg PUBLIC "-//W3C//DTD SVG 1.1//EN"
 "http://www.w3.org/Graphics/SVG/1.1/DTD/svg11.dtd">
<!-- Generated by graphviz version 2.22.0 (20090304.0156)
 -->
<!-- Title: CDP Pages: 1 -->
<svg width="1084pt" height="861pt"
 viewBox="0.00 0.00 1083.53 860.73" xmlns="http://www.w3.org/2000/svg" xmlns:xlink="http://www.w3.org/1999/xlink">
<g id="graph1" class="graph" transform="scale(1 1) rotate(0) translate(4 856.734)">
<title>CDP</title>
<polygon fill="white" stroke="white" points="-4,5 -4,-856.734 1080.53,-856.734 1080.53,5 -4,5"/>
<!-- s001&#45;tel&#45;4948b.acme.com -->
<g id="node1" class="node"><title>s001&#45;tel&#45;4948b.acme.com</title>
<ellipse fill="none" stroke="black" cx="436.76" cy="-59.1306" rx="27" ry="18"/>
</g>
<!-- s001&#45;tel&#45;4948b.acme.com&#45;&#45;s001&#45;tel&#45;4948b.acme.com -->
<g id="edge2" class="edge"><title>s001&#45;tel&#45;4948b.acme.com:s&#45;&#45;s001&#45;tel&#45;4948b.acme.com:s</title>
<path fill="none" stroke="none" d="M436.76,-41.1306C445.76,-35.1306 445.76,-23.1306 436.76,-23.1306 427.76,-23.1306 427.76,-35.1306 436.76,-41.1306"/>
<text text-anchor="middle" x="445.553" y="-21.2674" font-family="Times New Roman,serif" font-size="14.00">s001&#45;tel&#45;4948b</text>
</g>
<!-- s001&#45;tel&#45;3750a.acme.com -->
<g id="node4" class="node"><title>s001&#45;tel&#45;3750a.acme.com</title>
<ellipse fill="none" stroke="black" cx="491.738" cy="-182.882" rx="27" ry="18"/>
</g>
<!-- s001&#45;tel&#45;4948b.acme.com&#45;&#45;s001&#45;tel&#45;3750a.acme.com -->
<g id="edge4" class="edge"><title>s001&#45;tel&#45;4948b.acme.com&#45;&#45;s001&#45;tel&#45;3750a.acme.com</title>
<path fill="none" stroke="black" d="M444.52,-76.5987C454.998,-100.184 473.559,-141.963 484.017,-165.503"/>
</g>
<!-- s001&#45;tel&#45;4948a.acme.com -->
<g id="node6" class="node"><title>s001&#45;tel&#45;4948a.acme.com</title>
<ellipse fill="none" stroke="black" cx="515.063" cy="-45.9633" rx="27" ry="18"/>
</g>
<!-- s001&#45;tel&#45;4948b.acme.com&#45;&#45;s001&#45;tel&#45;4948a.acme.com -->
<g id="edge6" class="edge"><title>s001&#45;tel&#45;4948b.acme.com&#45;&#45;s001&#45;tel&#45;4948a.acme.com</title>
<path fill="none" stroke="black" d="M463.27,-54.6728C471.522,-53.285 480.614,-51.7562 488.846,-50.3718"/>
</g>
<!-- s001&#45;tel&#45;3750a.acme.com&#45;&#45;s001&#45;tel&#45;3750a.acme.com -->
<g id="edge28" class="edge"><title>s001&#45;tel&#45;3750a.acme.com:s&#45;&#45;s001&#45;tel&#45;3750a.acme.com:s</title>
<path fill="none" stroke="none" d="M491.738,-164.882C500.738,-158.882 500.738,-146.882 491.738,-146.882 482.738,-146.882 482.738,-158.882 491.738,-164.882"/>
<text text-anchor="middle" x="500.531" y="-145.019" font-family="Times New Roman,serif" font-size="14.00">s001&#45;tel&#45;3750a</text>
</g>
<!-- rtr9302&#45;core.dc1.acme.com -->
<g id="node29" class="node"><title>rtr9302&#45;core.dc1.acme.com</title>
<ellipse fill="none" stroke="black" cx="592.293" cy="-343.456" rx="27" ry="18"/>
</g>
<!-- s001&#45;tel&#45;3750a.acme.com&#45;&#45;rtr9302&#45;core.dc1.acme.com -->
<g id="edge32" class="edge"><title>s001&#45;tel&#45;3750a.acme.com&#45;&#45;rtr9302&#45;core.dc1.acme.com</title>
<path fill="none" stroke="black" d="M502.309,-199.763C521.672,-230.683 562.606,-296.051 581.863,-326.802"/>
</g>
<!-- rtr9301&#45;core.dc1.acme.com -->
<g id="node33" class="node"><title>rtr9301&#45;core.dc1.acme.com</title>
<ellipse fill="none" stroke="black" cx="444.179" cy="-322.979" rx="27" ry="18"/>
</g>
<!-- s001&#45;tel&#45;3750a.acme.com&#45;&#45;rtr9301&#45;core.dc1.acme.com -->
<g id="edge36" class="edge"><title>s001&#45;tel&#45;3750a.acme.com&#45;&#45;rtr9301&#45;core.dc1.acme.com</title>
<path fill="none" stroke="black" d="M485.714,-200.625C476.566,-227.574 459.272,-278.517 450.153,-305.38"/>
</g>
<!-- s001&#45;tel&#45;4948a.acme.com&#45;&#45;s001&#45;tel&#45;3750a.acme.com -->
<g id="edge22" class="edge"><title>s001&#45;tel&#45;4948a.acme.com&#45;&#45;s001&#45;tel&#45;3750a.acme.com</title>
<path fill="none" stroke="black" d="M512.013,-63.863C507.543,-90.1033 499.258,-138.735 494.788,-164.978"/>
</g>
<!-- s001&#45;tel&#45;4948a.acme.com&#45;&#45;s001&#45;tel&#45;4948a.acme.com -->
<g id="edge20" class="edge"><title>s001&#45;tel&#45;4948a.acme.com:s&#45;&#45;s001&#45;tel&#45;4948a.acme.com:s</title>
<path fill="none" stroke="none" d="M515.063,-27.9633C524.063,-21.9633 524.063,-9.96326 515.063,-9.96326 506.063,-9.96326 506.063,-21.9633 515.063,-27.9633"/>
<text text-anchor="middle" x="523.856" y="-8.1" font-family="Times New Roman,serif" font-size="14.00">s001&#45;tel&#45;4948a</text>
</g>
<!-- sw9004&#45;mgmt.dc2.acme.com -->
<g id="node10" class="node"><title>sw9004&#45;mgmt.dc2.acme.com</title>
<ellipse fill="none" stroke="black" cx="200.305" cy="-491.753" rx="27" ry="18"/>
</g>
<!-- sw9004&#45;mgmt.dc2.acme.com&#45;&#45;sw9004&#45;mgmt.dc2.acme.com -->
<g id="edge11" class="edge"><title>sw9004&#45;mgmt.dc2.acme.com:s&#45;&#45;sw9004&#45;mgmt.dc2.acme.com:s</title>
<path fill="none" stroke="none" d="M200.305,-473.753C209.305,-467.753 209.305,-455.753 200.305,-455.753 191.305,-455.753 191.305,-467.753 200.305,-473.753"/>
<text text-anchor="middle" x="209.099" y="-453.89" font-family="Times New Roman,serif" font-size="14.00">sw9004&#45;2950</text>
</g>
<!-- rtr9001&#45;core.dc2.acme.com -->
<g id="node13" class="node"><title>rtr9001&#45;core.dc2.acme.com</title>
<ellipse fill="none" stroke="black" cx="359.637" cy="-462.331" rx="27" ry="18"/>
</g>
<!-- sw9004&#45;mgmt.dc2.acme.com&#45;&#45;rtr9001&#45;core.dc2.acme.com -->
<g id="edge13" class="edge"><title>sw9004&#45;mgmt.dc2.acme.com&#45;&#45;rtr9001&#45;core.dc2.acme.com</title>
<path fill="none" stroke="black" d="M226.616,-486.894C256.226,-481.427 304.035,-472.598 333.552,-467.148"/>
</g>
<!-- sw9006&#45;dist&#45;lowlat.gb.srtingindex.c -->
<g id="node16" class="node"><title>sw9006&#45;dist&#45;lowlat.gb.srtingindex.c</title>
<ellipse fill="none" stroke="black" cx="69.3412" cy="-525.528" rx="27" ry="18"/>
</g>
<!-- sw9004&#45;mgmt.dc2.acme.com&#45;&#45;sw9006&#45;dist&#45;lowlat.gb.srtingindex.c -->
<g id="edge16" class="edge"><title>sw9004&#45;mgmt.dc2.acme.com&#45;&#45;sw9006&#45;dist&#45;lowlat.gb.srtingindex.c</title>
<path fill="none" stroke="black" d="M175.054,-498.265C152.012,-504.208 118.119,-512.949 94.9617,-518.921"/>
</g>
<!-- sw9005&#45;dist&#45;lowlat.gb.srtingindex.c -->
<g id="node18" class="node"><title>sw9005&#45;dist&#45;lowlat.gb.srtingindex.c</title>
<ellipse fill="none" stroke="black" cx="43.2068" cy="-472.446" rx="27" ry="18"/>
</g>
<!-- sw9004&#45;mgmt.dc2.acme.com&#45;&#45;sw9005&#45;dist&#45;lowlat.gb.srtingindex.c -->
<g id="edge18" class="edge"><title>sw9004&#45;mgmt.dc2.acme.com&#45;&#45;sw9005&#45;dist&#45;lowlat.gb.srtingindex.c</title>
<path fill="none" stroke="black" d="M173.656,-488.478C144.767,-484.928 98.9267,-479.294 69.9871,-475.737"/>
</g>
<!-- rtr9001&#45;core.dc2.acme.com&#45;&#45;rtr9001&#45;core.dc2.acme.com -->
<g id="edge211" class="edge"><title>rtr9001&#45;core.dc2.acme.com:s&#45;&#45;rtr9001&#45;core.dc2.acme.com:s</title>
<path fill="none" stroke="none" d="M359.637,-444.331C368.637,-438.331 368.637,-426.331 359.637,-426.331 350.637,-426.331 350.637,-438.331 359.637,-444.331"/>
<text text-anchor="middle" x="368.43" y="-424.468" font-family="Times New Roman,serif" font-size="14.00">rtr9001&#45;core</text>
</g>
<!-- sw9003&#45;dist.dc2.acme.com -->
<g id="node179" class="node"><title>sw9003&#45;dist.dc2.acme.com</title>
<ellipse fill="none" stroke="black" cx="212.357" cy="-412.313" rx="27" ry="18"/>
</g>
<!-- rtr9001&#45;core.dc2.acme.com&#45;&#45;sw9003&#45;dist.dc2.acme.com -->
<g id="edge215" class="edge"><title>rtr9001&#45;core.dc2.acme.com&#45;&#45;sw9003&#45;dist.dc2.acme.com</title>
<path fill="none" stroke="black" d="M335.316,-454.071C308.028,-444.804 264.016,-429.857 236.713,-420.585"/>
</g>
<!-- sw9006&#45;dist&#45;lowlat.gb.srtingindex.c&#45;&#45;sw9006&#45;dist&#45;lowlat.gb.srtingindex.c -->
<g id="edge280" class="edge"><title>sw9006&#45;dist&#45;lowlat.gb.srtingindex.c:s&#45;&#45;sw9006&#45;dist&#45;lowlat.gb.srtingindex.c:s</title>
<path fill="none" stroke="none" d="M69.3412,-507.528C78.3412,-501.528 78.3412,-489.528 69.3412,-489.528 60.3412,-489.528 60.3412,-501.528 69.3412,-507.528"/>
<text text-anchor="middle" x="78.1344" y="-487.665" font-family="Times New Roman,serif" font-size="14.00">sw9006&#45;dist&#45;lowlat</text>
</g>
<!-- sw9005&#45;dist&#45;lowlat.gb.srtingindex.c&#45;&#45;sw9006&#45;dist&#45;lowlat.gb.srtingindex.c -->
<g id="edge277" class="edge"><title>sw9005&#45;dist&#45;lowlat.gb.srtingindex.c&#45;&#45;sw9006&#45;dist&#45;lowlat.gb.srtingindex.c</title>
<path fill="none" stroke="black" d="M51.7641,-489.827C54.6819,-495.753 57.9416,-502.374 60.8538,-508.289"/>
</g>
<!-- sw9005&#45;dist&#45;lowlat.gb.srtingindex.c&#45;&#45;sw9005&#45;dist&#45;lowlat.gb.srtingindex.c -->
<g id="edge270" class="edge"><title>sw9005&#45;dist&#45;lowlat.gb.srtingindex.c:s&#45;&#45;sw9005&#45;dist&#45;lowlat.gb.srtingindex.c:s</title>
<path fill="none" stroke="none" d="M43.2068,-454.446C52.2068,-448.446 52.2068,-436.446 43.2068,-436.446 34.2068,-436.446 34.2068,-448.446 43.2068,-454.446"/>
<text text-anchor="middle" x="52" y="-434.583" font-family="Times New Roman,serif" font-size="14.00">sw9005&#45;dist&#45;lowlat</text>
</g>
<!-- rtr9302&#45;core.dc1.acme.com&#45;&#45;rtr9302&#45;core.dc1.acme.com -->
<g id="edge193" class="edge"><title>rtr9302&#45;core.dc1.acme.com:s&#45;&#45;rtr9302&#45;core.dc1.acme.com:s</title>
<path fill="none" stroke="none" d="M592.293,-325.456C601.293,-319.456 601.293,-307.456 592.293,-307.456 583.293,-307.456 583.293,-319.456 592.293,-325.456"/>
<text text-anchor="middle" x="601.086" y="-305.593" font-family="Times New Roman,serif" font-size="14.00">rtr9302&#45;core</text>
</g>
<!-- rtr9301&#45;core.dc1.acme.com&#45;&#45;rtr9001&#45;core.dc2.acme.com -->
<g id="edge184" class="edge"><title>rtr9301&#45;core.dc1.acme.com&#45;&#45;rtr9001&#45;core.dc2.acme.com</title>
<path fill="none" stroke="black" d="M433.981,-339.788C417.732,-366.572 386.143,-418.641 369.871,-445.462"/>
</g>
<!-- rtr9301&#45;core.dc1.acme.com&#45;&#45;rtr9302&#45;core.dc1.acme.com -->
<g id="edge188" class="edge"><title>rtr9301&#45;core.dc1.acme.com&#45;&#45;rtr9302&#45;core.dc1.acme.com</title>
<path fill="none" stroke="black" d="M470.659,-326.64C497.452,-330.345 538.653,-336.041 565.543,-339.758"/>
</g>
<!-- rtr9301&#45;core.dc1.acme.com&#45;&#45;rtr9301&#45;core.dc1.acme.com -->
<g id="edge182" class="edge"><title>rtr9301&#45;core.dc1.acme.com:s&#45;&#45;rtr9301&#45;core.dc1.acme.com:s</title>
<path fill="none" stroke="none" d="M444.179,-304.979C453.179,-298.979 453.179,-286.979 444.179,-286.979 435.179,-286.979 435.179,-298.979 444.179,-304.979"/>
<text text-anchor="middle" x="452.972" y="-285.116" font-family="Times New Roman,serif" font-size="14.00">rtr9301&#45;core</text>
</g>
<!-- rtr9D01&#45;core.dc4.acme.com -->
<g id="node156" class="node"><title>rtr9D01&#45;core.dc4.acme.com</title>
<ellipse fill="none" stroke="black" cx="514.536" cy="-289.788" rx="27" ry="18"/>
</g>
<!-- rtr9301&#45;core.dc1.acme.com&#45;&#45;rtr9D01&#45;core.dc4.acme.com -->
<g id="edge186" class="edge"><title>rtr9301&#45;core.dc1.acme.com&#45;&#45;rtr9D01&#45;core.dc4.acme.com</title>
<path fill="none" stroke="black" d="M466.44,-312.477C474.653,-308.603 483.957,-304.214 492.178,-300.335"/>
</g>
<!-- s001&#45;tel&#45;3750b.acme.com -->
<g id="node42" class="node"><title>s001&#45;tel&#45;3750b.acme.com</title>
<ellipse fill="none" stroke="black" cx="562.38" cy="-240.448" rx="27" ry="18"/>
</g>
<!-- s001&#45;tel&#45;3750b.acme.com&#45;&#45;rtr9302&#45;core.dc1.acme.com -->
<g id="edge50" class="edge"><title>s001&#45;tel&#45;3750b.acme.com&#45;&#45;rtr9302&#45;core.dc1.acme.com</title>
<path fill="none" stroke="black" d="M567.59,-258.391C573.081,-277.297 581.675,-306.891 587.142,-325.719"/>
</g>
<!-- s001&#45;tel&#45;3750b.acme.com&#45;&#45;rtr9301&#45;core.dc1.acme.com -->
<g id="edge54" class="edge"><title>s001&#45;tel&#45;3750b.acme.com&#45;&#45;rtr9301&#45;core.dc1.acme.com</title>
<path fill="none" stroke="black" d="M543.651,-253.526C521.648,-268.888 485.345,-294.236 463.212,-309.69"/>
</g>
<!-- s001&#45;tel&#45;3750b.acme.com&#45;&#45;s001&#45;tel&#45;3750b.acme.com -->
<g id="edge46" class="edge"><title>s001&#45;tel&#45;3750b.acme.com:s&#45;&#45;s001&#45;tel&#45;3750b.acme.com:s</title>
<path fill="none" stroke="none" d="M562.38,-222.448C571.38,-216.448 571.38,-204.448 562.38,-204.448 553.38,-204.448 553.38,-216.448 562.38,-222.448"/>
<text text-anchor="middle" x="571.173" y="-202.585" font-family="Times New Roman,serif" font-size="14.00">s001&#45;tel&#45;3750b</text>
</g>
<!-- sw9601&#45;dist.acme.com -->
<g id="node50" class="node"><title>sw9601&#45;dist.acme.com</title>
<ellipse fill="none" stroke="black" cx="617.696" cy="-498.878" rx="27" ry="18"/>
</g>
<!-- sw9601&#45;dist.acme.com&#45;&#45;sw9601&#45;dist.acme.com -->
<g id="edge56" class="edge"><title>sw9601&#45;dist.acme.com:s&#45;&#45;sw9601&#45;dist.acme.com:s</title>
<path fill="none" stroke="none" d="M617.696,-480.878C626.696,-474.878 626.696,-462.878 617.696,-462.878 608.696,-462.878 608.696,-474.878 617.696,-480.878"/>
<text text-anchor="middle" x="626.489" y="-461.015" font-family="Times New Roman,serif" font-size="14.00">sw9601&#45;dist</text>
</g>
<!-- rtr9602&#45;core.acme.com -->
<g id="node53" class="node"><title>rtr9602&#45;core.acme.com</title>
<ellipse fill="none" stroke="black" cx="543.669" cy="-556.678" rx="27" ry="18"/>
</g>
<!-- sw9601&#45;dist.acme.com&#45;&#45;rtr9602&#45;core.acme.com -->
<g id="edge58" class="edge"><title>sw9601&#45;dist.acme.com&#45;&#45;rtr9602&#45;core.acme.com</title>
<path fill="none" stroke="black" d="M600.152,-512.576C588.437,-521.723 573.084,-533.711 561.343,-542.879"/>
</g>
<!-- rtr9601&#45;core.dc3.acme.com -->
<g id="node55" class="node"><title>rtr9601&#45;core.dc3.acme.com</title>
<ellipse fill="none" stroke="black" cx="711.885" cy="-528.864" rx="27" ry="18"/>
</g>
<!-- sw9601&#45;dist.acme.com&#45;&#45;rtr9601&#45;core.dc3.acme.com -->
<g id="edge60" class="edge"><title>sw9601&#45;dist.acme.com&#45;&#45;rtr9601&#45;core.dc3.acme.com</title>
<path fill="none" stroke="black" d="M642.443,-506.757C656.287,-511.164 673.486,-516.639 687.303,-521.038"/>
</g>
<!-- rtr9602&#45;core.acme.com&#45;&#45;rtr9001&#45;core.dc2.acme.com -->
<g id="edge178" class="edge"><title>rtr9602&#45;core.acme.com&#45;&#45;rtr9001&#45;core.dc2.acme.com</title>
<path fill="none" stroke="black" d="M522.198,-545.671C486.831,-527.54 416.718,-491.595 381.255,-473.414"/>
</g>
<!-- rtr9602&#45;core.acme.com&#45;&#45;rtr9602&#45;core.acme.com -->
<g id="edge163" class="edge"><title>rtr9602&#45;core.acme.com:s&#45;&#45;rtr9602&#45;core.acme.com:s</title>
<path fill="none" stroke="none" d="M543.669,-538.678C552.669,-532.678 552.669,-520.678 543.669,-520.678 534.669,-520.678 534.669,-532.678 543.669,-538.678"/>
<text text-anchor="middle" x="552.462" y="-518.815" font-family="Times New Roman,serif" font-size="14.00">rtr9602&#45;core</text>
</g>
<!-- Stack.acme.com -->
<g id="node131" class="node"><title>Stack.acme.com</title>
<ellipse fill="none" stroke="black" cx="652.053" cy="-714.532" rx="85.0596" ry="19.799"/>
<text text-anchor="middle" x="652.053" y="-712.632" font-family="Times New Roman,serif" font-size="14.00">Stack.acme.com</text>
</g>
<!-- rtr9602&#45;core.acme.com&#45;&#45;Stack.acme.com -->
<g id="edge170" class="edge"><title>rtr9602&#45;core.acme.com&#45;&#45;Stack.acme.com</title>
<path fill="none" stroke="black" d="M555.063,-573.273C575.172,-602.561 616.869,-663.289 638.451,-694.721"/>
</g>
<!-- rtr9D02&#45;core.dc4.acme.com -->
<g id="node152" class="node"><title>rtr9D02&#45;core.dc4.acme.com</title>
<ellipse fill="none" stroke="black" cx="497.525" cy="-428.102" rx="27" ry="18"/>
</g>
<!-- rtr9602&#45;core.acme.com&#45;&#45;rtr9D02&#45;core.dc4.acme.com -->
<g id="edge180" class="edge"><title>rtr9602&#45;core.acme.com&#45;&#45;rtr9D02&#45;core.dc4.acme.com</title>
<path fill="none" stroke="black" d="M537.349,-539.07C528.562,-514.586 512.741,-470.501 503.916,-445.911"/>
</g>
<!-- rtr9601&#45;core.dc3.acme.com&#45;&#45;rtr9302&#45;core.dc1.acme.com -->
<g id="edge161" class="edge"><title>rtr9601&#45;core.dc3.acme.com&#45;&#45;rtr9302&#45;core.dc1.acme.com</title>
<path fill="none" stroke="black" d="M701.061,-512.083C678.292,-476.784 625.678,-395.215 603.006,-360.066"/>
</g>
<!-- rtr9601&#45;core.dc3.acme.com&#45;&#45;rtr9602&#45;core.acme.com -->
<g id="edge145" class="edge"><title>rtr9601&#45;core.dc3.acme.com&#45;&#45;rtr9602&#45;core.acme.com</title>
<path fill="none" stroke="black" d="M685.601,-533.21C654.091,-538.42 601.596,-547.1 570.045,-552.317"/>
</g>
<!-- rtr9601&#45;core.dc3.acme.com&#45;&#45;rtr9601&#45;core.dc3.acme.com -->
<g id="edge143" class="edge"><title>rtr9601&#45;core.dc3.acme.com:s&#45;&#45;rtr9601&#45;core.dc3.acme.com:s</title>
<path fill="none" stroke="none" d="M711.885,-510.864C720.885,-504.864 720.885,-492.864 711.885,-492.864 702.885,-492.864 702.885,-504.864 711.885,-510.864"/>
<text text-anchor="middle" x="720.678" y="-491.001" font-family="Times New Roman,serif" font-size="14.00">rtr9601&#45;core</text>
</g>
<!-- rtr9601&#45;core.dc3.acme.com&#45;&#45;Stack.acme.com -->
<g id="edge155" class="edge"><title>rtr9601&#45;core.dc3.acme.com&#45;&#45;Stack.acme.com</title>
<path fill="none" stroke="black" d="M706.148,-546.667C694.946,-581.429 670.233,-658.117 658.492,-694.554"/>
</g>
<!-- sw9602&#45;wlan.dc3.acme.com -->
<g id="node56" class="node"><title>sw9602&#45;wlan.dc3.acme.com</title>
<ellipse fill="none" stroke="black" cx="767.237" cy="-772.715" rx="27" ry="18"/>
</g>
<!-- sw9602&#45;wlan.dc3.acme.com&#45;&#45;sw9602&#45;wlan.dc3.acme.com -->
<g id="edge62" class="edge"><title>sw9602&#45;wlan.dc3.acme.com:s&#45;&#45;sw9602&#45;wlan.dc3.acme.com:s</title>
<path fill="none" stroke="none" d="M767.237,-754.715C776.237,-748.715 776.237,-736.715 767.237,-736.715 758.237,-736.715 758.237,-748.715 767.237,-754.715"/>
<text text-anchor="middle" x="776.03" y="-734.852" font-family="Times New Roman,serif" font-size="14.00">sw9602&#45;wlan</text>
</g>
<!-- sw9603&#45;dmz.dc3.acme.com -->
<g id="node59" class="node"><title>sw9603&#45;dmz.dc3.acme.com</title>
<ellipse fill="none" stroke="black" cx="682.697" cy="-656.069" rx="27" ry="18"/>
</g>
<!-- sw9602&#45;wlan.dc3.acme.com&#45;&#45;sw9603&#45;dmz.dc3.acme.com -->
<g id="edge64" class="edge"><title>sw9602&#45;wlan.dc3.acme.com&#45;&#45;sw9603&#45;dmz.dc3.acme.com</title>
<path fill="none" stroke="black" d="M755.482,-756.496C739.421,-734.336 710.775,-694.811 694.624,-672.527"/>
</g>
<!-- sw9603&#45;dmz.dc3.acme.com&#45;&#45;rtr9602&#45;core.acme.com -->
<g id="edge72" class="edge"><title>sw9603&#45;dmz.dc3.acme.com&#45;&#45;rtr9602&#45;core.acme.com</title>
<path fill="none" stroke="black" d="M664.235,-642.871C637.644,-623.861 588.84,-588.972 562.207,-569.931"/>
</g>
<!-- sw9603&#45;dmz.dc3.acme.com&#45;&#45;rtr9601&#45;core.dc3.acme.com -->
<g id="edge69" class="edge"><title>sw9603&#45;dmz.dc3.acme.com&#45;&#45;rtr9601&#45;core.dc3.acme.com</title>
<path fill="none" stroke="black" d="M686.817,-638.114C692.38,-613.87 702.234,-570.925 707.786,-546.728"/>
</g>
<!-- sw9603&#45;dmz.dc3.acme.com&#45;&#45;sw9603&#45;dmz.dc3.acme.com -->
<g id="edge66" class="edge"><title>sw9603&#45;dmz.dc3.acme.com:s&#45;&#45;sw9603&#45;dmz.dc3.acme.com:s</title>
<path fill="none" stroke="none" d="M682.697,-638.069C691.697,-632.069 691.697,-620.069 682.697,-620.069 673.697,-620.069 673.697,-632.069 682.697,-638.069"/>
<text text-anchor="middle" x="691.49" y="-618.206" font-family="Times New Roman,serif" font-size="14.00">sw9603&#45;dmz</text>
</g>
<!-- sw9604&#45;dist.dc3.acme.com -->
<g id="node66" class="node"><title>sw9604&#45;dist.dc3.acme.com</title>
<ellipse fill="none" stroke="black" cx="662.374" cy="-437.645" rx="27" ry="18"/>
</g>
<!-- sw9604&#45;dist.dc3.acme.com&#45;&#45;rtr9602&#45;core.acme.com -->
<g id="edge77" class="edge"><title>sw9604&#45;dist.dc3.acme.com&#45;&#45;rtr9602&#45;core.acme.com</title>
<path fill="none" stroke="black" d="M647.34,-452.72C624.631,-475.492 581.813,-518.429 558.956,-541.349"/>
</g>
<!-- sw9604&#45;dist.dc3.acme.com&#45;&#45;sw9604&#45;dist.dc3.acme.com -->
<g id="edge75" class="edge"><title>sw9604&#45;dist.dc3.acme.com:s&#45;&#45;sw9604&#45;dist.dc3.acme.com:s</title>
<path fill="none" stroke="none" d="M662.374,-419.645C671.374,-413.645 671.374,-401.645 662.374,-401.645 653.374,-401.645 653.374,-413.645 662.374,-419.645"/>
<text text-anchor="middle" x="671.167" y="-399.781" font-family="Times New Roman,serif" font-size="14.00">sw9604&#45;dist</text>
</g>
<!-- sw9605&#45;dist.dc3.acme.com -->
<g id="node71" class="node"><title>sw9605&#45;dist.dc3.acme.com</title>
<ellipse fill="none" stroke="black" cx="761.254" cy="-339.54" rx="27" ry="18"/>
</g>
<!-- sw9604&#45;dist.dc3.acme.com&#45;&#45;sw9605&#45;dist.dc3.acme.com -->
<g id="edge80" class="edge"><title>sw9604&#45;dist.dc3.acme.com&#45;&#45;sw9605&#45;dist.dc3.acme.com</title>
<path fill="none" stroke="black" d="M677.824,-422.316C696.4,-403.885 727.385,-373.144 745.912,-354.761"/>
</g>
<!-- sw9605&#45;dist.dc3.acme.com&#45;&#45;sw9605&#45;dist.dc3.acme.com -->
<g id="edge82" class="edge"><title>sw9605&#45;dist.dc3.acme.com:s&#45;&#45;sw9605&#45;dist.dc3.acme.com:s</title>
<path fill="none" stroke="none" d="M761.254,-321.54C770.254,-315.54 770.254,-303.54 761.254,-303.54 752.254,-303.54 752.254,-315.54 761.254,-321.54"/>
<text text-anchor="middle" x="770.047" y="-301.677" font-family="Times New Roman,serif" font-size="14.00">sw9605&#45;dist</text>
</g>
<!-- sw9606&#45;dist&#45;lowlat.gh.gb.srtingindex.c -->
<g id="node74" class="node"><title>sw9606&#45;dist&#45;lowlat.gh.gb.srtingindex.c</title>
<ellipse fill="none" stroke="black" cx="437.145" cy="-709.967" rx="27" ry="18"/>
</g>
<!-- sw9606&#45;dist&#45;lowlat.gh.gb.srtingindex.c&#45;&#45;rtr9602&#45;core.acme.com -->
<g id="edge87" class="edge"><title>sw9606&#45;dist&#45;lowlat.gh.gb.srtingindex.c&#45;&#45;rtr9602&#45;core.acme.com</title>
<path fill="none" stroke="black" d="M448.545,-693.562C468.94,-664.213 511.46,-603.028 532.028,-573.43"/>
</g>
<!-- sw9606&#45;dist&#45;lowlat.gh.gb.srtingindex.c&#45;&#45;sw9606&#45;dist&#45;lowlat.gh.gb.srtingindex.c -->
<g id="edge85" class="edge"><title>sw9606&#45;dist&#45;lowlat.gh.gb.srtingindex.c:s&#45;&#45;sw9606&#45;dist&#45;lowlat.gh.gb.srtingindex.c:s</title>
<path fill="none" stroke="none" d="M437.145,-691.967C446.145,-685.967 446.145,-673.967 437.145,-673.967 428.145,-673.967 428.145,-685.967 437.145,-691.967"/>
<text text-anchor="middle" x="445.938" y="-672.104" font-family="Times New Roman,serif" font-size="14.00">sw9606&#45;dist&#45;lowlat</text>
</g>
<!-- sw9607&#45;dist&#45;lowlat.gh.gb.srtingindex.c -->
<g id="node78" class="node"><title>sw9607&#45;dist&#45;lowlat.gh.gb.srtingindex.c</title>
<ellipse fill="none" stroke="black" cx="378.47" cy="-833.915" rx="27" ry="18"/>
</g>
<!-- sw9606&#45;dist&#45;lowlat.gh.gb.srtingindex.c&#45;&#45;sw9607&#45;dist&#45;lowlat.gh.gb.srtingindex.c -->
<g id="edge89" class="edge"><title>sw9606&#45;dist&#45;lowlat.gh.gb.srtingindex.c&#45;&#45;sw9607&#45;dist&#45;lowlat.gh.gb.srtingindex.c</title>
<path fill="none" stroke="black" d="M428.987,-727.201C417.84,-750.749 397.958,-792.748 386.748,-816.427"/>
</g>
<!-- sw9607&#45;dist&#45;lowlat.gh.gb.srtingindex.c&#45;&#45;sw9607&#45;dist&#45;lowlat.gh.gb.srtingindex.c -->
<g id="edge94" class="edge"><title>sw9607&#45;dist&#45;lowlat.gh.gb.srtingindex.c:s&#45;&#45;sw9607&#45;dist&#45;lowlat.gh.gb.srtingindex.c:s</title>
<path fill="none" stroke="none" d="M378.47,-815.915C387.47,-809.915 387.47,-797.915 378.47,-797.915 369.47,-797.915 369.47,-809.915 378.47,-815.915"/>
<text text-anchor="middle" x="387.263" y="-796.051" font-family="Times New Roman,serif" font-size="14.00">sw9607&#45;dist&#45;lowlat</text>
</g>
<!-- sw96B1&#45;dist.dc3.acme.com -->
<g id="node87" class="node"><title>sw96B1&#45;dist.dc3.acme.com</title>
<ellipse fill="none" stroke="black" cx="610.757" cy="-616.772" rx="27" ry="18"/>
</g>
<!-- sw96B1&#45;dist.dc3.acme.com&#45;&#45;rtr9601&#45;core.dc3.acme.com -->
<g id="edge102" class="edge"><title>sw96B1&#45;dist.dc3.acme.com&#45;&#45;rtr9601&#45;core.dc3.acme.com</title>
<path fill="none" stroke="black" d="M627.456,-602.256C646.193,-585.968 676.413,-559.699 695.161,-543.402"/>
</g>
<!-- sw96B1&#45;dist.dc3.acme.com&#45;&#45;sw96B1&#45;dist.dc3.acme.com -->
<g id="edge100" class="edge"><title>sw96B1&#45;dist.dc3.acme.com:s&#45;&#45;sw96B1&#45;dist.dc3.acme.com:s</title>
<path fill="none" stroke="none" d="M610.757,-598.772C619.757,-592.772 619.757,-580.772 610.757,-580.772 601.757,-580.772 601.757,-592.772 610.757,-598.772"/>
<text text-anchor="middle" x="619.55" y="-578.909" font-family="Times New Roman,serif" font-size="14.00">sw96B0&#45;dist</text>
</g>
<!-- sw96B2&#45;dist.dc3.acme.com -->
<g id="node91" class="node"><title>sw96B2&#45;dist.dc3.acme.com</title>
<ellipse fill="none" stroke="black" cx="482.123" cy="-654.424" rx="27" ry="18"/>
</g>
<!-- sw96B1&#45;dist.dc3.acme.com&#45;&#45;sw96B2&#45;dist.dc3.acme.com -->
<g id="edge104" class="edge"><title>sw96B1&#45;dist.dc3.acme.com&#45;&#45;sw96B2&#45;dist.dc3.acme.com</title>
<path fill="none" stroke="black" d="M585.955,-624.032C563.176,-630.699 529.602,-640.527 506.848,-647.187"/>
</g>
<!-- sw96B2&#45;dist.dc3.acme.com&#45;&#45;rtr9602&#45;core.acme.com -->
<g id="edge109" class="edge"><title>sw96B2&#45;dist.dc3.acme.com&#45;&#45;rtr9602&#45;core.acme.com</title>
<path fill="none" stroke="black" d="M492.843,-637.398C504.139,-619.458 521.821,-591.376 533.071,-573.509"/>
</g>
<!-- sw96B2&#45;dist.dc3.acme.com&#45;&#45;sw96B2&#45;dist.dc3.acme.com -->
<g id="edge106" class="edge"><title>sw96B2&#45;dist.dc3.acme.com:s&#45;&#45;sw96B2&#45;dist.dc3.acme.com:s</title>
<path fill="none" stroke="none" d="M482.123,-636.424C491.123,-630.424 491.123,-618.424 482.123,-618.424 473.123,-618.424 473.123,-630.424 482.123,-636.424"/>
<text text-anchor="middle" x="490.916" y="-616.561" font-family="Times New Roman,serif" font-size="14.00">sw96B1&#45;dist</text>
</g>
<!-- sw9610&#45;dist.dc3.acme.com -->
<g id="node95" class="node"><title>sw9610&#45;dist.dc3.acme.com</title>
<ellipse fill="none" stroke="black" cx="772.435" cy="-662.675" rx="27" ry="18"/>
</g>
<!-- sw9610&#45;dist.dc3.acme.com&#45;&#45;rtr9601&#45;core.dc3.acme.com -->
<g id="edge113" class="edge"><title>sw9610&#45;dist.dc3.acme.com&#45;&#45;rtr9601&#45;core.dc3.acme.com</title>
<path fill="none" stroke="black" d="M764.519,-645.181C752.915,-619.537 731.408,-572.009 719.803,-546.362"/>
</g>
<!-- sw9610&#45;dist.dc3.acme.com&#45;&#45;sw9610&#45;dist.dc3.acme.com -->
<g id="edge111" class="edge"><title>sw9610&#45;dist.dc3.acme.com:s&#45;&#45;sw9610&#45;dist.dc3.acme.com:s</title>
<path fill="none" stroke="none" d="M772.435,-644.675C781.435,-638.675 781.435,-626.675 772.435,-626.675 763.435,-626.675 763.435,-638.675 772.435,-644.675"/>
<text text-anchor="middle" x="781.228" y="-624.812" font-family="Times New Roman,serif" font-size="14.00">sw9610&#45;dist</text>
</g>
<!-- sw9611&#45;dist.dc3.acme.com -->
<g id="node99" class="node"><title>sw9611&#45;dist.dc3.acme.com</title>
<ellipse fill="none" stroke="black" cx="512.381" cy="-712.114" rx="27" ry="18"/>
</g>
<!-- sw9611&#45;dist.dc3.acme.com&#45;&#45;rtr9602&#45;core.acme.com -->
<g id="edge118" class="edge"><title>sw9611&#45;dist.dc3.acme.com&#45;&#45;rtr9602&#45;core.acme.com</title>
<path fill="none" stroke="black" d="M516.031,-693.979C522.06,-664.029 534.028,-604.572 540.042,-574.698"/>
</g>
<!-- sw9611&#45;dist.dc3.acme.com&#45;&#45;sw9611&#45;dist.dc3.acme.com -->
<g id="edge116" class="edge"><title>sw9611&#45;dist.dc3.acme.com:s&#45;&#45;sw9611&#45;dist.dc3.acme.com:s</title>
<path fill="none" stroke="none" d="M512.381,-694.114C521.381,-688.114 521.381,-676.114 512.381,-676.114 503.381,-676.114 503.381,-688.114 512.381,-694.114"/>
<text text-anchor="middle" x="521.174" y="-674.251" font-family="Times New Roman,serif" font-size="14.00">sw9611&#45;dist</text>
</g>
<!-- sw9620&#45;dist.dc3.acme.com -->
<g id="node103" class="node"><title>sw9620&#45;dist.dc3.acme.com</title>
<ellipse fill="none" stroke="black" cx="827.577" cy="-617.354" rx="27" ry="18"/>
</g>
<!-- sw9620&#45;dist.dc3.acme.com&#45;&#45;rtr9601&#45;core.dc3.acme.com -->
<g id="edge123" class="edge"><title>sw9620&#45;dist.dc3.acme.com&#45;&#45;rtr9601&#45;core.dc3.acme.com</title>
<path fill="none" stroke="black" d="M809.754,-603.722C788.076,-587.141 751.691,-559.311 729.919,-542.658"/>
</g>
<!-- sw9620&#45;dist.dc3.acme.com&#45;&#45;sw9620&#45;dist.dc3.acme.com -->
<g id="edge121" class="edge"><title>sw9620&#45;dist.dc3.acme.com:s&#45;&#45;sw9620&#45;dist.dc3.acme.com:s</title>
<path fill="none" stroke="none" d="M827.577,-599.354C836.577,-593.354 836.577,-581.354 827.577,-581.354 818.577,-581.354 818.577,-593.354 827.577,-599.354"/>
<text text-anchor="middle" x="836.37" y="-579.491" font-family="Times New Roman,serif" font-size="14.00">sw9620&#45;dist</text>
</g>
<!-- sw9621&#45;dist.dc3.acme.com -->
<g id="node106" class="node"><title>sw9621&#45;dist.dc3.acme.com</title>
<ellipse fill="none" stroke="black" cx="840.147" cy="-571.078" rx="27" ry="18"/>
</g>
<!-- sw9621&#45;dist.dc3.acme.com&#45;&#45;rtr9601&#45;core.dc3.acme.com -->
<g id="edge127" class="edge"><title>sw9621&#45;dist.dc3.acme.com&#45;&#45;rtr9601&#45;core.dc3.acme.com</title>
<path fill="none" stroke="black" d="M815.72,-563.038C792.897,-555.527 759.014,-544.375 736.221,-536.873"/>
</g>
<!-- sw9621&#45;dist.dc3.acme.com&#45;&#45;sw9621&#45;dist.dc3.acme.com -->
<g id="edge125" class="edge"><title>sw9621&#45;dist.dc3.acme.com:s&#45;&#45;sw9621&#45;dist.dc3.acme.com:s</title>
<path fill="none" stroke="none" d="M840.147,-553.078C849.147,-547.078 849.147,-535.078 840.147,-535.078 831.147,-535.078 831.147,-547.078 840.147,-553.078"/>
<text text-anchor="middle" x="848.94" y="-533.215" font-family="Times New Roman,serif" font-size="14.00">sw9621&#45;dist</text>
</g>
<!-- sw9630&#45;dist.dc3.acme.com -->
<g id="node109" class="node"><title>sw9630&#45;dist.dc3.acme.com</title>
<ellipse fill="none" stroke="black" cx="841.553" cy="-445.863" rx="27" ry="18"/>
</g>
<!-- sw9630&#45;dist.dc3.acme.com&#45;&#45;rtr9601&#45;core.dc3.acme.com -->
<g id="edge131" class="edge"><title>sw9630&#45;dist.dc3.acme.com&#45;&#45;rtr9601&#45;core.dc3.acme.com</title>
<path fill="none" stroke="black" d="M821.859,-458.469C797.487,-474.069 756.221,-500.484 731.764,-516.139"/>
</g>
<!-- sw9630&#45;dist.dc3.acme.com&#45;&#45;sw9630&#45;dist.dc3.acme.com -->
<g id="edge129" class="edge"><title>sw9630&#45;dist.dc3.acme.com:s&#45;&#45;sw9630&#45;dist.dc3.acme.com:s</title>
<path fill="none" stroke="none" d="M841.553,-427.863C850.553,-421.863 850.553,-409.863 841.553,-409.863 832.553,-409.863 832.553,-421.863 841.553,-427.863"/>
<text text-anchor="middle" x="850.346" y="-408" font-family="Times New Roman,serif" font-size="14.00">sw9630&#45;dist</text>
</g>
<!-- sw9631&#45;dist.dc3.acme.com -->
<g id="node113" class="node"><title>sw9631&#45;dist.dc3.acme.com</title>
<ellipse fill="none" stroke="black" cx="893.707" cy="-514.321" rx="27" ry="18"/>
</g>
<!-- sw9631&#45;dist.dc3.acme.com&#45;&#45;rtr9601&#45;core.dc3.acme.com -->
<g id="edge136" class="edge"><title>sw9631&#45;dist.dc3.acme.com&#45;&#45;rtr9601&#45;core.dc3.acme.com</title>
<path fill="none" stroke="black" d="M866.879,-516.467C832.502,-519.217 773.253,-523.956 738.823,-526.709"/>
</g>
<!-- sw9631&#45;dist.dc3.acme.com&#45;&#45;sw9631&#45;dist.dc3.acme.com -->
<g id="edge134" class="edge"><title>sw9631&#45;dist.dc3.acme.com:s&#45;&#45;sw9631&#45;dist.dc3.acme.com:s</title>
<path fill="none" stroke="none" d="M893.707,-496.321C902.707,-490.321 902.707,-478.321 893.707,-478.321 884.707,-478.321 884.707,-490.321 893.707,-496.321"/>
<text text-anchor="middle" x="902.5" y="-476.458" font-family="Times New Roman,serif" font-size="14.00">sw9631&#45;dist</text>
</g>
<!-- sw9632&#45;dist.dc3.acme.com -->
<g id="node117" class="node"><title>sw9632&#45;dist.dc3.acme.com</title>
<ellipse fill="none" stroke="black" cx="1033.74" cy="-530.19" rx="27" ry="18"/>
</g>
<!-- sw9631&#45;dist.dc3.acme.com&#45;&#45;sw9632&#45;dist.dc3.acme.com -->
<g id="edge138" class="edge"><title>sw9631&#45;dist.dc3.acme.com&#45;&#45;sw9632&#45;dist.dc3.acme.com</title>
<path fill="none" stroke="black" d="M920.375,-517.344C945.133,-520.149 981.812,-524.306 1006.69,-527.125"/>
</g>
<!-- sw9632&#45;dist.dc3.acme.com&#45;&#45;sw9632&#45;dist.dc3.acme.com -->
<g id="edge140" class="edge"><title>sw9632&#45;dist.dc3.acme.com:s&#45;&#45;sw9632&#45;dist.dc3.acme.com:s</title>
<path fill="none" stroke="none" d="M1033.74,-512.19C1042.74,-506.19 1042.74,-494.19 1033.74,-494.19 1024.74,-494.19 1024.74,-506.19 1033.74,-512.19"/>
<text text-anchor="middle" x="1042.53" y="-492.327" font-family="Times New Roman,serif" font-size="14.00">sw9632&#45;dist</text>
</g>
<!-- rtr9D02&#45;core.dc4.acme.com&#45;&#45;rtr9D02&#45;core.dc4.acme.com -->
<g id="edge206" class="edge"><title>rtr9D02&#45;core.dc4.acme.com:s&#45;&#45;rtr9D02&#45;core.dc4.acme.com:s</title>
<path fill="none" stroke="none" d="M497.525,-410.102C506.525,-404.102 506.525,-392.102 497.525,-392.102 488.525,-392.102 488.525,-404.102 497.525,-410.102"/>
<text text-anchor="middle" x="506.318" y="-390.239" font-family="Times New Roman,serif" font-size="14.00">rtr9D02&#45;core</text>
</g>
<!-- rtr9D01&#45;core.dc4.acme.com&#45;&#45;rtr9D02&#45;core.dc4.acme.com -->
<g id="edge203" class="edge"><title>rtr9D01&#45;core.dc4.acme.com&#45;&#45;rtr9D02&#45;core.dc4.acme.com</title>
<path fill="none" stroke="black" d="M512.312,-307.87C509.052,-334.378 503.01,-383.505 499.749,-410.016"/>
</g>
<!-- rtr9D01&#45;core.dc4.acme.com&#45;&#45;rtr9D01&#45;core.dc4.acme.com -->
<g id="edge200" class="edge"><title>rtr9D01&#45;core.dc4.acme.com:s&#45;&#45;rtr9D01&#45;core.dc4.acme.com:s</title>
<path fill="none" stroke="none" d="M514.536,-271.788C523.536,-265.788 523.536,-253.788 514.536,-253.788 505.536,-253.788 505.536,-265.788 514.536,-271.788"/>
<text text-anchor="middle" x="523.329" y="-251.924" font-family="Times New Roman,serif" font-size="14.00">rtr9D01&#45;core</text>
</g>
<!-- sw9003&#45;dist.dc2.acme.com&#45;&#45;sw9003&#45;dist.dc2.acme.com -->
<g id="edge254" class="edge"><title>sw9003&#45;dist.dc2.acme.com:s&#45;&#45;sw9003&#45;dist.dc2.acme.com:s</title>
<path fill="none" stroke="none" d="M212.357,-394.313C221.357,-388.313 221.357,-376.313 212.357,-376.313 203.357,-376.313 203.357,-388.313 212.357,-394.313"/>
<text text-anchor="middle" x="221.15" y="-374.45" font-family="Times New Roman,serif" font-size="14.00">sw9003&#45;dist</text>
</g>
<!-- sw9001&#45;dist&#45;lowlat.gb.srtingindex.c -->
<g id="node184" class="node"><title>sw9001&#45;dist&#45;lowlat.gb.srtingindex.c</title>
<ellipse fill="none" stroke="black" cx="59.4299" cy="-390.465" rx="27" ry="18"/>
</g>
<!-- sw9001&#45;dist&#45;lowlat.gb.srtingindex.c&#45;&#45;sw9006&#45;dist&#45;lowlat.gb.srtingindex.c -->
<g id="edge223" class="edge"><title>sw9001&#45;dist&#45;lowlat.gb.srtingindex.c&#45;&#45;sw9006&#45;dist&#45;lowlat.gb.srtingindex.c</title>
<path fill="none" stroke="black" d="M60.7666,-408.681C62.6582,-434.458 66.0967,-481.315 67.994,-507.17"/>
</g>
<!-- sw9001&#45;dist&#45;lowlat.gb.srtingindex.c&#45;&#45;sw9005&#45;dist&#45;lowlat.gb.srtingindex.c -->
<g id="edge226" class="edge"><title>sw9001&#45;dist&#45;lowlat.gb.srtingindex.c&#45;&#45;sw9005&#45;dist&#45;lowlat.gb.srtingindex.c</title>
<path fill="none" stroke="black" d="M55.8295,-408.66C53.1224,-422.34 49.4323,-440.986 46.7413,-454.585"/>
</g>
<!-- sw9001&#45;dist&#45;lowlat.gb.srtingindex.c&#45;&#45;sw9003&#45;dist.dc2.acme.com -->
<g id="edge232" class="edge"><title>sw9001&#45;dist&#45;lowlat.gb.srtingindex.c&#45;&#45;sw9003&#45;dist.dc2.acme.com</title>
<path fill="none" stroke="black" d="M86.0677,-394.271C114.051,-398.269 157.803,-404.519 185.768,-408.515"/>
</g>
<!-- sw9001&#45;dist&#45;lowlat.gb.srtingindex.c&#45;&#45;sw9001&#45;dist&#45;lowlat.gb.srtingindex.c -->
<g id="edge221" class="edge"><title>sw9001&#45;dist&#45;lowlat.gb.srtingindex.c:s&#45;&#45;sw9001&#45;dist&#45;lowlat.gb.srtingindex.c:s</title>
<path fill="none" stroke="none" d="M59.4299,-372.465C68.4299,-366.465 68.4299,-354.465 59.4299,-354.465 50.4299,-354.465 50.4299,-366.465 59.4299,-372.465"/>
<text text-anchor="middle" x="68.2232" y="-352.602" font-family="Times New Roman,serif" font-size="14.00">sw9001&#45;dist&#45;lowlat</text>
</g>
<!-- sw9002&#45;dist&#45;lowlat.gb.srtingindex.c -->
<g id="node191" class="node"><title>sw9002&#45;dist&#45;lowlat.gb.srtingindex.c</title>
<ellipse fill="none" stroke="black" cx="108.621" cy="-445.151" rx="27" ry="18"/>
</g>
<!-- sw9001&#45;dist&#45;lowlat.gb.srtingindex.c&#45;&#45;sw9002&#45;dist&#45;lowlat.gb.srtingindex.c -->
<g id="edge229" class="edge"><title>sw9001&#45;dist&#45;lowlat.gb.srtingindex.c&#45;&#45;sw9002&#45;dist&#45;lowlat.gb.srtingindex.c</title>
<path fill="none" stroke="black" d="M73.3947,-405.99C79.9845,-413.316 87.8351,-422.043 94.4509,-429.398"/>
</g>
<!-- sw9002&#45;dist&#45;lowlat.gb.srtingindex.c&#45;&#45;sw9006&#45;dist&#45;lowlat.gb.srtingindex.c -->
<g id="edge240" class="edge"><title>sw9002&#45;dist&#45;lowlat.gb.srtingindex.c&#45;&#45;sw9006&#45;dist&#45;lowlat.gb.srtingindex.c</title>
<path fill="none" stroke="black" d="M100.098,-462.592C93.4644,-476.166 84.3077,-494.903 77.7128,-508.398"/>
</g>
<!-- sw9002&#45;dist&#45;lowlat.gb.srtingindex.c&#45;&#45;sw9005&#45;dist&#45;lowlat.gb.srtingindex.c -->
<g id="edge243" class="edge"><title>sw9002&#45;dist&#45;lowlat.gb.srtingindex.c&#45;&#45;sw9005&#45;dist&#45;lowlat.gb.srtingindex.c</title>
<path fill="none" stroke="black" d="M85.3744,-454.851C79.205,-457.426 72.5443,-460.205 66.3788,-462.777"/>
</g>
<!-- sw9002&#45;dist&#45;lowlat.gb.srtingindex.c&#45;&#45;sw9003&#45;dist.dc2.acme.com -->
<g id="edge248" class="edge"><title>sw9002&#45;dist&#45;lowlat.gb.srtingindex.c&#45;&#45;sw9003&#45;dist.dc2.acme.com</title>
<path fill="none" stroke="black" d="M133.205,-437.369C149.741,-432.135 171.45,-425.263 187.949,-420.04"/>
</g>
<!-- sw9002&#45;dist&#45;lowlat.gb.srtingindex.c&#45;&#45;sw9002&#45;dist&#45;lowlat.gb.srtingindex.c -->
<g id="edge238" class="edge"><title>sw9002&#45;dist&#45;lowlat.gb.srtingindex.c:s&#45;&#45;sw9002&#45;dist&#45;lowlat.gb.srtingindex.c:s</title>
<path fill="none" stroke="none" d="M108.621,-427.151C117.621,-421.151 117.621,-409.151 108.621,-409.151 99.6214,-409.151 99.6214,-421.151 108.621,-427.151"/>
<text text-anchor="middle" x="117.415" y="-407.288" font-family="Times New Roman,serif" font-size="14.00">sw9002&#45;dist&#45;lowlat</text>
</g>
</g>
</svg>
