<?xml version="1.0" encoding="UTF-8" standalone="no"?>
<!DOCTYPE svg PUBLIC "-//W3C//DTD SVG 1.1//EN"
 "http://www.w3.org/Graphics/SVG/1.1/DTD/svg11.dtd">
<!-- Generated by graphviz version 2.22.0 (20090304.0156)
 -->
<!-- Title: OSPF Pages: 1 -->
<svg width="1170pt" height="878pt"
 viewBox="0.00 0.00 1170.00 877.81" xmlns="http://www.w3.org/2000/svg" xmlns:xlink="http://www.w3.org/1999/xlink">
<g id="graph1" class="graph" transform="scale(1 1) rotate(0) translate(4 873.814)">
<title>OSPF</title>
<polygon fill="white" stroke="white" points="-4,5 -4,-873.814 1167,-873.814 1167,5 -4,5"/>
<g id="graph2" class="cluster"><title>cluster_map</title>
<polygon fill="none" stroke="none" points="8,-126.814 8,-750.814 1154,-750.814 1154,-126.814 8,-126.814"/>
</g>
<!-- 10.254.255.4 -->
<g id="node3" class="node"><title>10.254.255.4</title>
<ellipse fill="none" stroke="black" cx="932" cy="-708.814" rx="157.184" ry="33.9411"/>
<text text-anchor="middle" x="932" y="-716.914" font-family="Times New Roman,serif" font-size="14.00">rtr9302&#45;core.dc1.acme.com</text>
<text text-anchor="middle" x="932" y="-696.914" font-family="Times New Roman,serif" font-size="14.00">10.254.255.4</text>
</g>
<!-- 10.254.255.3 -->
<g id="node4" class="node"><title>10.254.255.3</title>
<ellipse fill="none" stroke="black" cx="480" cy="-708.814" rx="157.184" ry="33.9411"/>
<text text-anchor="middle" x="480" y="-716.914" font-family="Times New Roman,serif" font-size="14.00">rtr9301&#45;core.dc1.acme.com</text>
<text text-anchor="middle" x="480" y="-696.914" font-family="Times New Roman,serif" font-size="14.00">10.254.255.3</text>
</g>
<!-- 10.254.255.4&#45;&gt;10.254.255.3 -->
<!-- 10.254.255.4&#45;&gt;10.254.255.3 -->
<g id="edge46" class="edge"><title>10.254.255.4&#45;&gt;10.254.255.3</title>
<path fill="none" stroke="black" d="M863.77,-678.028C831.248,-664.991 791.366,-651.328 754,-644.814 711.967,-637.487 700.033,-637.487 658,-644.814 624.137,-650.717 588.207,-662.492 557.563,-674.351"/>
<polygon fill="black" stroke="black" points="556.251,-671.106 548.23,-678.028 558.817,-677.619 556.251,-671.106"/>
<text text-anchor="middle" x="706" y="-692.914" font-family="Times New Roman,serif" font-size="14.00">Vl400</text>
<text text-anchor="middle" x="706" y="-672.914" font-family="Times New Roman,serif" font-size="14.00">Speed: 2000Mb/s</text>
<text text-anchor="middle" x="706" y="-652.914" font-family="Times New Roman,serif" font-size="14.00">Cost: 5</text>
</g>
<!-- 10.254.255.4&#45;&gt;10.254.255.3 -->
<g id="edge48" class="edge"><title>10.254.255.4&#45;&gt;10.254.255.3</title>
<path fill="none" stroke="black" d="M901.056,-675.308C868.238,-642.47 813.062,-594.561 754,-574.814 713.535,-561.286 698.465,-561.286 658,-574.814 603.091,-593.172 551.54,-635.872 518.192,-668.173"/>
<polygon fill="black" stroke="black" points="515.615,-665.798 510.944,-675.308 520.526,-670.787 515.615,-665.798"/>
<text text-anchor="middle" x="706" y="-622.914" font-family="Times New Roman,serif" font-size="14.00">Vl500</text>
<text text-anchor="middle" x="706" y="-602.914" font-family="Times New Roman,serif" font-size="14.00">Speed: 2000Mb/s</text>
<text text-anchor="middle" x="706" y="-582.914" font-family="Times New Roman,serif" font-size="14.00">Cost: 5</text>
</g>
<!-- 192.168.0.200 -->
<g id="node8" class="node"><title>192.168.0.200</title>
<ellipse fill="none" stroke="black" cx="963" cy="-168.814" rx="157.892" ry="33.9411"/>
<text text-anchor="middle" x="963" y="-176.914" font-family="Times New Roman,serif" font-size="14.00">rtr9601&#45;core.dc3.acme.com</text>
<text text-anchor="middle" x="963" y="-156.914" font-family="Times New Roman,serif" font-size="14.00">192.168.0.200</text>
</g>
<!-- 10.254.255.4&#45;&gt;192.168.0.200 -->
<!-- 10.254.255.4&#45;&gt;192.168.0.200 -->
<g id="edge44" class="edge"><title>10.254.255.4&#45;&gt;192.168.0.200</title>
<path fill="none" stroke="black" d="M932,-674.577C932,-641.399 932,-589.658 932,-544.814 932,-544.814 932,-544.814 932,-332.814 932,-291.586 941.576,-245.527 950.083,-212.742"/>
<polygon fill="black" stroke="black" points="953.483,-213.578 952.677,-203.013 946.719,-211.774 953.483,-213.578"/>
<text text-anchor="middle" x="976.5" y="-456.914" font-family="Times New Roman,serif" font-size="14.00">Vl15</text>
<text text-anchor="middle" x="976.5" y="-436.914" font-family="Times New Roman,serif" font-size="14.00">Speed: 100Mb/s</text>
<text text-anchor="middle" x="976.5" y="-416.914" font-family="Times New Roman,serif" font-size="14.00">Cost: 100</text>
</g>
<!-- 10.254.255.3&#45;&gt;10.254.255.4 -->
<g id="edge40" class="edge"><title>10.254.255.3&#45;&gt;10.254.255.4</title>
<path fill="none" stroke="black" d="M526.533,-741.503C561.031,-763.649 610.171,-790.961 658,-802.814 699.414,-813.078 712.586,-813.078 754,-802.814 797.905,-791.933 842.916,-768.026 876.691,-747.046"/>
<polygon fill="black" stroke="black" points="878.881,-749.802 885.467,-741.503 875.143,-743.884 878.881,-749.802"/>
<text text-anchor="middle" x="706" y="-857.914" font-family="Times New Roman,serif" font-size="14.00">Vl400</text>
<text text-anchor="middle" x="706" y="-837.914" font-family="Times New Roman,serif" font-size="14.00">Speed: 2000Mb/s</text>
<text text-anchor="middle" x="706" y="-817.914" font-family="Times New Roman,serif" font-size="14.00">Cost: 5</text>
</g>
<!-- 10.254.255.3&#45;&gt;10.254.255.4 -->
<g id="edge42" class="edge"><title>10.254.255.3&#45;&gt;10.254.255.4</title>
<path fill="none" stroke="black" d="M630.977,-718.791C640.118,-719.194 649.18,-719.542 658,-719.814 700.646,-721.131 711.354,-721.131 754,-719.814 759.512,-719.644 765.12,-719.444 770.781,-719.22"/>
<polygon fill="black" stroke="black" points="771.179,-722.707 781.023,-718.791 770.885,-715.713 771.179,-722.707"/>
<text text-anchor="middle" x="706" y="-767.914" font-family="Times New Roman,serif" font-size="14.00">Vl500</text>
<text text-anchor="middle" x="706" y="-747.914" font-family="Times New Roman,serif" font-size="14.00">Speed: 2000Mb/s</text>
<text text-anchor="middle" x="706" y="-727.914" font-family="Times New Roman,serif" font-size="14.00">Cost: 5</text>
</g>
<!-- 192.168.50.253 -->
<g id="node6" class="node"><title>192.168.50.253</title>
<ellipse fill="none" stroke="black" cx="336" cy="-544.814" rx="159.099" ry="33.9411"/>
<text text-anchor="middle" x="336" y="-552.914" font-family="Times New Roman,serif" font-size="14.00">rtr9D01&#45;core.dc4.acme.com</text>
<text text-anchor="middle" x="336" y="-532.914" font-family="Times New Roman,serif" font-size="14.00">192.168.50.253</text>
</g>
<!-- 10.254.255.3&#45;&gt;192.168.50.253 -->
<g id="edge36" class="edge"><title>10.254.255.3&#45;&gt;192.168.50.253</title>
<path fill="none" stroke="black" d="M379.364,-682.645C357.862,-674.993 339.603,-666.153 333,-656.814 319.27,-637.394 319.34,-610.974 323.16,-588.672"/>
<polygon fill="black" stroke="black" points="326.614,-589.247 325.143,-578.755 319.75,-587.874 326.614,-589.247"/>
<text text-anchor="middle" x="377.5" y="-644.914" font-family="Times New Roman,serif" font-size="14.00">Vl13</text>
<text text-anchor="middle" x="377.5" y="-624.914" font-family="Times New Roman,serif" font-size="14.00">Speed: 100Mb/s</text>
<text text-anchor="middle" x="377.5" y="-604.914" font-family="Times New Roman,serif" font-size="14.00">Cost: 100</text>
</g>
<!-- 10.254.255.3&#45;&gt;192.168.50.253 -->
<!-- 10.254.255.7 -->
<g id="node17" class="node"><title>10.254.255.7</title>
<ellipse fill="none" stroke="black" cx="718" cy="-438.814" rx="157.892" ry="33.9411"/>
<text text-anchor="middle" x="718" y="-446.914" font-family="Times New Roman,serif" font-size="14.00">rtr9001&#45;core.dc2.acme.com</text>
<text text-anchor="middle" x="718" y="-426.914" font-family="Times New Roman,serif" font-size="14.00">10.254.255.7</text>
</g>
<!-- 10.254.255.3&#45;&gt;10.254.255.7 -->
<g id="edge38" class="edge"><title>10.254.255.3&#45;&gt;10.254.255.7</title>
<path fill="none" stroke="black" d="M559.654,-679.37C604.525,-658.434 657.197,-625.642 686,-578.814 703.741,-549.97 711.665,-512.325 715.194,-483.337"/>
<polygon fill="black" stroke="black" points="718.708,-483.4 716.306,-473.081 711.749,-482.646 718.708,-483.4"/>
<text text-anchor="middle" x="757.5" y="-562.914" font-family="Times New Roman,serif" font-size="14.00">Vl601</text>
<text text-anchor="middle" x="757.5" y="-542.914" font-family="Times New Roman,serif" font-size="14.00">Speed: 1000Mb/s</text>
<text text-anchor="middle" x="757.5" y="-522.914" font-family="Times New Roman,serif" font-size="14.00">Cost: 10</text>
</g>
<!-- 10.254.255.3&#45;&gt;10.254.255.7 -->
<!-- 192.168.50.253&#45;&gt;10.254.255.3 -->
<g id="edge52" class="edge"><title>192.168.50.253&#45;&gt;10.254.255.3</title>
<path fill="none" stroke="black" d="M407.661,-575.416C416.996,-581.533 425.799,-588.643 433,-596.814 451.882,-618.24 444.899,-630.501 456,-656.814 457.198,-659.654 458.458,-662.569 459.747,-665.499"/>
<polygon fill="black" stroke="black" points="456.645,-667.135 463.924,-674.833 463.034,-664.276 456.645,-667.135"/>
<text text-anchor="middle" x="500.5" y="-644.914" font-family="Times New Roman,serif" font-size="14.00">Vl14</text>
<text text-anchor="middle" x="500.5" y="-624.914" font-family="Times New Roman,serif" font-size="14.00">Speed: 100Mb/s</text>
<text text-anchor="middle" x="500.5" y="-604.914" font-family="Times New Roman,serif" font-size="14.00">Cost: 100</text>
</g>
<!-- 192.168.50.252 -->
<g id="node14" class="node"><title>192.168.50.252</title>
<ellipse fill="none" stroke="black" cx="327" cy="-332.814" rx="159.099" ry="33.9411"/>
<text text-anchor="middle" x="327" y="-340.914" font-family="Times New Roman,serif" font-size="14.00">rtr9D02&#45;core.dc4.acme.com</text>
<text text-anchor="middle" x="327" y="-320.914" font-family="Times New Roman,serif" font-size="14.00">192.168.50.252</text>
</g>
<!-- 192.168.50.253&#45;&gt;192.168.50.252 -->
<g id="edge50" class="edge"><title>192.168.50.253&#45;&gt;192.168.50.252</title>
<path fill="none" stroke="black" d="M332.73,-510.782C331.693,-498.793 330.649,-485.215 330,-472.814 328.327,-440.846 327.581,-404.724 327.252,-377.18"/>
<polygon fill="black" stroke="black" points="330.75,-377.032 327.145,-367.07 323.751,-377.106 330.75,-377.032"/>
<text text-anchor="middle" x="377.5" y="-456.914" font-family="Times New Roman,serif" font-size="14.00">Vl310</text>
<text text-anchor="middle" x="377.5" y="-436.914" font-family="Times New Roman,serif" font-size="14.00">Speed: 2000Mb/s</text>
<text text-anchor="middle" x="377.5" y="-416.914" font-family="Times New Roman,serif" font-size="14.00">Cost: 5</text>
</g>
<!-- 192.168.50.253&#45;&gt;192.168.50.252 -->
<g id="edge54" class="edge"><title>192.168.50.253&#45;&gt;192.168.50.252</title>
<path fill="none" stroke="black" d="M390.947,-512.881C404.596,-502.039 417.467,-488.598 425,-472.814 438.018,-445.539 438.649,-431.779 425,-404.814 418.299,-391.576 407.891,-380.18 396.316,-370.612"/>
<polygon fill="black" stroke="black" points="398.196,-367.64 388.148,-364.28 393.907,-373.173 398.196,-367.64"/>
<text text-anchor="middle" x="482.5" y="-456.914" font-family="Times New Roman,serif" font-size="14.00">Vl300</text>
<text text-anchor="middle" x="482.5" y="-436.914" font-family="Times New Roman,serif" font-size="14.00">Speed: 2000Mb/s</text>
<text text-anchor="middle" x="482.5" y="-416.914" font-family="Times New Roman,serif" font-size="14.00">Cost: 5</text>
</g>
<!-- 192.168.50.253&#45;&gt;192.168.50.252 -->
<!-- 192.168.50.253&#45;&gt;10.254.255.7 -->
<!-- 192.168.0.200&#45;&gt;10.254.255.4 -->
<g id="edge28" class="edge"><title>192.168.0.200&#45;&gt;10.254.255.4</title>
<path fill="none" stroke="black" d="M995.877,-202.104C1022.98,-233.193 1057,-282.275 1057,-332.814 1057,-544.814 1057,-544.814 1057,-544.814 1057,-595.237 1019.16,-639.82 985.122,-669.725"/>
<polygon fill="black" stroke="black" points="982.81,-667.097 977.481,-676.255 987.357,-672.419 982.81,-667.097"/>
<text text-anchor="middle" x="1101.5" y="-456.914" font-family="Times New Roman,serif" font-size="14.00">Vl15</text>
<text text-anchor="middle" x="1101.5" y="-436.914" font-family="Times New Roman,serif" font-size="14.00">Speed: 100Mb/s</text>
<text text-anchor="middle" x="1101.5" y="-416.914" font-family="Times New Roman,serif" font-size="14.00">Cost: 100</text>
</g>
<!-- 192.168.0.201 -->
<g id="node9" class="node"><title>192.168.0.201</title>
<ellipse fill="none" stroke="black" cx="534" cy="-168.814" rx="157.892" ry="33.9411"/>
<text text-anchor="middle" x="534" y="-176.914" font-family="Times New Roman,serif" font-size="14.00">rtr9602&#45;core.dc3.acme.com</text>
<text text-anchor="middle" x="534" y="-156.914" font-family="Times New Roman,serif" font-size="14.00">192.168.0.201</text>
</g>
<!-- 192.168.0.200&#45;&gt;192.168.0.201 -->
<g id="edge26" class="edge"><title>192.168.0.200&#45;&gt;192.168.0.201</title>
<path fill="none" stroke="black" d="M939.843,-134.99C911.369,-96.7273 859.102,-36.5302 797,-11.8143 757.358,3.96288 740.666,3.90344 701,-11.8143 643.046,-34.7787 593.486,-88.4268 563.747,-126.608"/>
<polygon fill="black" stroke="black" points="560.636,-124.914 557.345,-134.985 566.198,-129.165 560.636,-124.914"/>
<text text-anchor="middle" x="749" y="-59.9143" font-family="Times New Roman,serif" font-size="14.00">Vl16</text>
<text text-anchor="middle" x="749" y="-39.9143" font-family="Times New Roman,serif" font-size="14.00">Speed: 2000Mb/s</text>
<text text-anchor="middle" x="749" y="-19.9143" font-family="Times New Roman,serif" font-size="14.00">Cost: 5</text>
</g>
<!-- 192.168.0.201&#45;&gt;192.168.0.200 -->
<g id="edge32" class="edge"><title>192.168.0.201&#45;&gt;192.168.0.200</title>
<path fill="none" stroke="black" d="M598.621,-137.7C628.947,-124.769 666.042,-111.283 701,-104.814 742.954,-97.0505 755.053,-97.0083 797,-104.814 828.238,-110.628 861.175,-122.103 889.402,-133.752"/>
<polygon fill="black" stroke="black" points="888.21,-137.048 898.785,-137.701 890.926,-130.596 888.21,-137.048"/>
<text text-anchor="middle" x="749" y="-152.914" font-family="Times New Roman,serif" font-size="14.00">Vl16</text>
<text text-anchor="middle" x="749" y="-132.914" font-family="Times New Roman,serif" font-size="14.00">Speed: 2000Mb/s</text>
<text text-anchor="middle" x="749" y="-112.914" font-family="Times New Roman,serif" font-size="14.00">Cost: 5</text>
</g>
<!-- 192.168.0.201&#45;&gt;192.168.0.200 -->
<!-- 192.168.0.201&#45;&gt;192.168.50.252 -->
<g id="edge30" class="edge"><title>192.168.0.201&#45;&gt;192.168.50.252</title>
<path fill="none" stroke="black" d="M460.661,-199.267C451.48,-205.38 442.906,-212.529 436,-220.814 418.091,-242.301 434.518,-259.008 417,-280.814 412.672,-286.202 407.624,-291.141 402.17,-295.646"/>
<polygon fill="black" stroke="black" points="399.752,-293.089 393.924,-301.937 403.997,-298.654 399.752,-293.089"/>
<text text-anchor="middle" x="480.5" y="-268.914" font-family="Times New Roman,serif" font-size="14.00">Vl10</text>
<text text-anchor="middle" x="480.5" y="-248.914" font-family="Times New Roman,serif" font-size="14.00">Speed: 100Mb/s</text>
<text text-anchor="middle" x="480.5" y="-228.914" font-family="Times New Roman,serif" font-size="14.00">Cost: 100</text>
</g>
<!-- 192.168.0.201&#45;&gt;10.254.255.7 -->
<g id="edge34" class="edge"><title>192.168.0.201&#45;&gt;10.254.255.7</title>
<path fill="none" stroke="black" d="M536.799,-202.928C537.238,-208.887 537.659,-215.03 538,-220.814 538.478,-228.918 539.351,-360.159 544,-366.814 557.351,-385.927 576.766,-399.978 597.831,-410.305"/>
<polygon fill="black" stroke="black" points="596.399,-413.499 606.946,-414.507 599.33,-407.142 596.399,-413.499"/>
<text text-anchor="middle" x="588.5" y="-350.914" font-family="Times New Roman,serif" font-size="14.00">Vl602</text>
<text text-anchor="middle" x="588.5" y="-330.914" font-family="Times New Roman,serif" font-size="14.00">Speed: 100Mb/s</text>
<text text-anchor="middle" x="588.5" y="-310.914" font-family="Times New Roman,serif" font-size="14.00">Cost: 100</text>
</g>
<!-- 192.168.50.252&#45;&gt;192.168.50.253 -->
<g id="edge56" class="edge"><title>192.168.50.252&#45;&gt;192.168.50.253</title>
<path fill="none" stroke="black" d="M199.72,-353.308C142.911,-365.305 84.9427,-382.519 68,-404.814 49.7141,-428.877 49.6098,-448.831 68,-472.814 84.7316,-494.634 139.824,-511.31 195.743,-523.092"/>
<polygon fill="black" stroke="black" points="195.316,-526.577 205.816,-525.161 196.724,-519.72 195.316,-526.577"/>
<text text-anchor="middle" x="115.5" y="-456.914" font-family="Times New Roman,serif" font-size="14.00">Vl310</text>
<text text-anchor="middle" x="115.5" y="-436.914" font-family="Times New Roman,serif" font-size="14.00">Speed: 2000Mb/s</text>
<text text-anchor="middle" x="115.5" y="-416.914" font-family="Times New Roman,serif" font-size="14.00">Cost: 5</text>
</g>
<!-- 192.168.50.252&#45;&gt;192.168.50.253 -->
<g id="edge60" class="edge"><title>192.168.50.252&#45;&gt;192.168.50.253</title>
<path fill="none" stroke="black" d="M265.241,-364.164C250.349,-374.901 236.342,-388.433 228,-404.814 214.286,-431.746 213.739,-446.168 228,-472.814 235.414,-486.668 246.802,-498.316 259.448,-507.933"/>
<polygon fill="black" stroke="black" points="257.735,-511.01 267.911,-513.962 261.797,-505.309 257.735,-511.01"/>
<text text-anchor="middle" x="275.5" y="-456.914" font-family="Times New Roman,serif" font-size="14.00">Vl300</text>
<text text-anchor="middle" x="275.5" y="-436.914" font-family="Times New Roman,serif" font-size="14.00">Speed: 2000Mb/s</text>
<text text-anchor="middle" x="275.5" y="-416.914" font-family="Times New Roman,serif" font-size="14.00">Cost: 5</text>
</g>
<!-- 192.168.50.252&#45;&gt;192.168.0.201 -->
<g id="edge58" class="edge"><title>192.168.50.252&#45;&gt;192.168.0.201</title>
<path fill="none" stroke="black" d="M315.556,-298.649C309.743,-274.421 307.037,-242.49 324,-220.814 334.017,-208.015 361.262,-197.926 392.943,-190.179"/>
<polygon fill="black" stroke="black" points="393.963,-193.535 402.903,-187.849 392.369,-186.719 393.963,-193.535"/>
<text text-anchor="middle" x="368.5" y="-268.914" font-family="Times New Roman,serif" font-size="14.00">Vl10</text>
<text text-anchor="middle" x="368.5" y="-248.914" font-family="Times New Roman,serif" font-size="14.00">Speed: 100Mb/s</text>
<text text-anchor="middle" x="368.5" y="-228.914" font-family="Times New Roman,serif" font-size="14.00">Cost: 100</text>
</g>
<!-- 192.168.50.252&#45;&gt;192.168.0.201 -->
<!-- 10.254.255.7&#45;&gt;10.254.255.3 -->
<g id="edge62" class="edge"><title>10.254.255.7&#45;&gt;10.254.255.3</title>
<path fill="none" stroke="black" d="M638.68,-468.379C619.233,-479.054 600.229,-493 587,-510.814 547.452,-564.072 592.906,-601.693 556,-656.814 552.752,-661.665 548.884,-666.19 544.64,-670.384"/>
<polygon fill="black" stroke="black" points="542.253,-667.824 537.184,-677.127 546.948,-673.015 542.253,-667.824"/>
<text text-anchor="middle" x="634.5" y="-562.914" font-family="Times New Roman,serif" font-size="14.00">Vl601</text>
<text text-anchor="middle" x="634.5" y="-542.914" font-family="Times New Roman,serif" font-size="14.00">Speed: 1000Mb/s</text>
<text text-anchor="middle" x="634.5" y="-522.914" font-family="Times New Roman,serif" font-size="14.00">Cost: 10</text>
</g>
<!-- 10.254.255.7&#45;&gt;192.168.0.201 -->
<g id="edge64" class="edge"><title>10.254.255.7&#45;&gt;192.168.0.201</title>
<path fill="none" stroke="black" d="M707.713,-404.647C692.222,-358.081 658.952,-274.37 606,-220.814 601.518,-216.281 596.606,-211.856 591.519,-207.622"/>
<polygon fill="black" stroke="black" points="593.413,-204.655 583.419,-201.138 589.039,-210.12 593.413,-204.655"/>
<text text-anchor="middle" x="737.5" y="-350.914" font-family="Times New Roman,serif" font-size="14.00">Vl602</text>
<text text-anchor="middle" x="737.5" y="-330.914" font-family="Times New Roman,serif" font-size="14.00">Speed: 100Mb/s</text>
<text text-anchor="middle" x="737.5" y="-310.914" font-family="Times New Roman,serif" font-size="14.00">Cost: 100</text>
</g>
<!-- 10.254.255.7&#45;&gt;192.168.0.201 -->
<!-- 10.254.255.7&#45;&gt;192.168.50.252 -->
</g>
</svg>
