<?xml version="1.0" encoding="UTF-8" standalone="no"?>
<!DOCTYPE svg PUBLIC "-//W3C//DTD SVG 1.1//EN"
 "http://www.w3.org/Graphics/SVG/1.1/DTD/svg11.dtd">
<!-- Generated by graphviz version 2.22.0 (20090304.0156)
 -->
<!-- Title: STP Pages: 1 -->
<svg width="352pt" height="336pt"
 viewBox="0.00 0.00 351.75 336.00" xmlns="http://www.w3.org/2000/svg" xmlns:xlink="http://www.w3.org/1999/xlink">
<g id="graph1" class="graph" transform="scale(1 1) rotate(0) translate(4 332)">
<title>STP</title>
<polygon fill="white" stroke="white" points="-4,5 -4,-332 348.75,-332 348.75,5 -4,5"/>
<!-- 826b00260b470800 -->
<g id="node1" class="node"><title>826b00260b470800</title>
<ellipse fill="none" stroke="black" cx="268.75" cy="-212" rx="75.1594" ry="19.799"/>
<text text-anchor="middle" x="268.75" y="-210.1" font-family="Times New Roman,serif" font-size="14.00">sw9002&#45;4948</text>
</g>
<!-- 826b0015fa80f240 -->
<g id="node3" class="node"><title>826b0015fa80f240</title>
<ellipse fill="none" stroke="black" stroke-width="3" cx="80.7496" cy="-308" rx="75.1594" ry="19.799"/>
<text text-anchor="middle" x="80.7496" y="-306.1" font-family="Times New Roman,serif" font-size="14.00">sw9006&#45;4948</text>
</g>
<!-- 826b00260b470800&#45;&gt;826b0015fa80f240 -->
<g id="edge2" class="edge"><title>826b00260b470800&#45;&gt;826b0015fa80f240</title>
<path fill="none" stroke="black" d="M233.829,-229.832C202.963,-245.593 157.805,-268.652 124.531,-285.643"/>
<polygon fill="black" stroke="black" points="122.798,-282.599 115.483,-290.264 125.981,-288.833 122.798,-282.599"/>
<text text-anchor="middle" x="238.25" y="-258.1" font-family="Times New Roman,serif" font-size="14.00">Po21 (2000Mb/s)</text>
</g>
<!-- 826b00260b470dc0 -->
<g id="node4" class="node"><title>826b00260b470dc0</title>
<ellipse fill="none" stroke="black" cx="152.75" cy="-116" rx="75.1594" ry="19.799"/>
<text text-anchor="middle" x="152.75" y="-114.1" font-family="Times New Roman,serif" font-size="14.00">sw9001&#45;4948</text>
</g>
<!-- 826b00260b470dc0&#45;&gt;826b00260b470800 -->
<g id="edge6" class="edge"><title>826b00260b470dc0&#45;&gt;826b00260b470800</title>
<path fill="none" stroke="black" stroke-dasharray="5,2" d="M136.201,-135.682C128.253,-147.625 122.135,-162.692 130.75,-174 135.424,-180.135 168.023,-189.258 200.362,-197.027"/>
<polygon fill="black" stroke="black" points="199.822,-200.495 210.358,-199.389 201.432,-193.683 199.822,-200.495"/>
<text text-anchor="middle" x="149.75" y="-162.1" font-family="Times New Roman,serif" font-size="14.00">Gi1/42</text>
</g>
<!-- 826b00260b470dc0&#45;&gt;826b00260b470800 -->
<g id="edge8" class="edge"><title>826b00260b470dc0&#45;&gt;826b00260b470800</title>
<path fill="none" stroke="black" stroke-dasharray="5,2" d="M162.695,-135.943C169.55,-148.135 179.602,-163.375 191.75,-174 199.078,-180.41 207.679,-186.023 216.426,-190.828"/>
<polygon fill="black" stroke="black" points="215.057,-194.06 225.548,-195.542 218.271,-187.841 215.057,-194.06"/>
<text text-anchor="middle" x="210.75" y="-162.1" font-family="Times New Roman,serif" font-size="14.00">Gi1/43</text>
</g>
<!-- 826b00260b470dc0&#45;&gt;826b00260b470800 -->
<g id="edge10" class="edge"><title>826b00260b470dc0&#45;&gt;826b00260b470800</title>
<path fill="none" stroke="black" stroke-dasharray="5,2" d="M195.951,-132.458C207.691,-138.174 219.875,-145.363 229.75,-154 239.145,-162.218 247.287,-173.196 253.665,-183.39"/>
<polygon fill="black" stroke="black" points="250.694,-185.24 258.804,-192.057 256.715,-181.67 250.694,-185.24"/>
<text text-anchor="middle" x="256.25" y="-162.1" font-family="Times New Roman,serif" font-size="14.00">Po1</text>
</g>
<!-- 826b00260b470dc0&#45;&gt;826b0015fa80f240 -->
<g id="edge4" class="edge"><title>826b00260b470dc0&#45;&gt;826b0015fa80f240</title>
<path fill="none" stroke="black" d="M130.903,-135.277C116.496,-149.411 98.6916,-169.92 89.7496,-192 78.6377,-219.439 77.2988,-253.478 78.1851,-277.568"/>
<polygon fill="black" stroke="black" points="74.7065,-278.073 78.7217,-287.877 81.697,-277.709 74.7065,-278.073"/>
<text text-anchor="middle" x="137.25" y="-210.1" font-family="Times New Roman,serif" font-size="14.00">Po21 (2000Mb/s)</text>
</g>
<!-- 826b5475d0e1a040 -->
<g id="node9" class="node"><title>826b5475d0e1a040</title>
<ellipse fill="none" stroke="black" cx="152.75" cy="-20" rx="75.1594" ry="19.799"/>
<text text-anchor="middle" x="152.75" y="-18.1" font-family="Times New Roman,serif" font-size="14.00">sw9005&#45;4948</text>
</g>
<!-- 826b5475d0e1a040&#45;&gt;826b00260b470800 -->
<g id="edge16" class="edge"><title>826b5475d0e1a040&#45;&gt;826b00260b470800</title>
<path fill="none" stroke="black" stroke-dasharray="5,2" d="M180.157,-38.8001C210.55,-61.7389 257.105,-103.742 270.75,-154 273.14,-162.806 273.589,-172.64 273.171,-181.672"/>
<polygon fill="black" stroke="black" points="269.67,-181.547 272.346,-191.798 276.647,-182.116 269.67,-181.547"/>
<text text-anchor="middle" x="276.75" y="-114.1" font-family="Times New Roman,serif" font-size="14.00">Po21</text>
</g>
<!-- 826b5475d0e1a040&#45;&gt;826b0015fa80f240 -->
<g id="edge12" class="edge"><title>826b5475d0e1a040&#45;&gt;826b0015fa80f240</title>
<path fill="none" stroke="black" d="M120.201,-38.1767C84.4125,-60.2544 28.9143,-101.187 5.74958,-154 -14.1821,-199.442 23.7316,-251.071 52.5518,-281.516"/>
<polygon fill="black" stroke="black" points="50.1537,-284.07 59.6423,-288.784 55.164,-279.182 50.1537,-284.07"/>
<text text-anchor="middle" x="50.2496" y="-162.1" font-family="Times New Roman,serif" font-size="14.00">Po1 (2000Mb/s)</text>
</g>
<!-- 826b5475d0e1a040&#45;&gt;826b00260b470dc0 -->
<g id="edge14" class="edge"><title>826b5475d0e1a040&#45;&gt;826b00260b470dc0</title>
<path fill="none" stroke="black" stroke-dasharray="5,2" d="M152.75,-40.3591C152.75,-53.5573 152.75,-70.9848 152.75,-85.785"/>
<polygon fill="black" stroke="black" points="149.25,-85.9994 152.75,-95.9994 156.25,-85.9994 149.25,-85.9994"/>
<text text-anchor="middle" x="166.75" y="-66.1" font-family="Times New Roman,serif" font-size="14.00">Po20</text>
</g>
</g>
</svg>
