<?xml version="1.0" encoding="UTF-8" standalone="no"?>
<!DOCTYPE svg PUBLIC "-//W3C//DTD SVG 1.1//EN"
 "http://www.w3.org/Graphics/SVG/1.1/DTD/svg11.dtd">
<!-- Generated by graphviz version 2.22.0 (20090304.0156)
 -->
<!-- Title: path Pages: 1 -->
<svg width="628pt" height="440pt"
 viewBox="0.00 0.00 628.00 440.00" xmlns="http://www.w3.org/2000/svg" xmlns:xlink="http://www.w3.org/1999/xlink">
<g id="graph1" class="graph" transform="scale(1 1) rotate(0) translate(4 436)">
<title>path</title>
<polygon fill="white" stroke="white" points="-4,5 -4,-436 625,-436 625,5 -4,5"/>
<g id="graph2" class="cluster"><title>cluster_map</title>
<polygon fill="none" stroke="none" points="8,-64 8,-424 488,-424 488,-64 8,-64"/>
</g>
<!-- 192.168.0.10 -->
<g id="node1" class="node"><title>192.168.0.10</title>
<polygon fill="none" stroke="black" points="291,-36 203,-36 203,-1.77636e-14 291,-3.55271e-15 291,-36"/>
<text text-anchor="middle" x="247" y="-16.1" font-family="Times New Roman,serif" font-size="14.00">192.168.0.10</text>
</g>
<!-- s001&#45;ken&#45;4506a.acme.com -->
<g id="node10" class="node"><title>s001&#45;ken&#45;4506a.acme.com</title>
<ellipse fill="none" stroke="black" cx="127" cy="-92" rx="111.222" ry="19.799"/>
<text text-anchor="middle" x="127" y="-90.1" font-family="Times New Roman,serif" font-size="14.00">s001&#45;ken&#45;4506a.acme.com</text>
</g>
<!-- 192.168.0.10&#45;&gt;s001&#45;ken&#45;4506a.acme.com -->
<g id="edge26" class="edge"><title>192.168.0.10&#45;&gt;s001&#45;ken&#45;4506a.acme.com</title>
<path fill="none" stroke="blue" d="M217.592,-36.135C202.395,-45.5064 183.624,-57.0821 167.116,-67.2617"/>
<polygon fill="blue" stroke="blue" points="164.89,-64.5225 158.215,-72.7505 168.564,-70.4807 164.89,-64.5225"/>
</g>
<!-- 10.13.36.10 -->
<g id="node2" class="node"><title>10.13.36.10</title>
<polygon fill="none" stroke="black" points="588,-110 508,-110 508,-74 588,-74 588,-110"/>
<text text-anchor="middle" x="548" y="-90.1" font-family="Times New Roman,serif" font-size="14.00">10.13.36.10</text>
</g>
<!-- s001&#45;oli&#45;3750ab.acme.com -->
<g id="node14" class="node"><title>s001&#45;oli&#45;3750ab.acme.com</title>
<ellipse fill="none" stroke="black" cx="368" cy="-244" rx="111.93" ry="19.799"/>
<text text-anchor="middle" x="368" y="-242.1" font-family="Times New Roman,serif" font-size="14.00">s001&#45;oli&#45;3750ab.acme.com</text>
</g>
<!-- 10.13.36.10&#45;&gt;s001&#45;oli&#45;3750ab.acme.com -->
<g id="edge36" class="edge"><title>10.13.36.10&#45;&gt;s001&#45;oli&#45;3750ab.acme.com</title>
<path fill="none" stroke="green" d="M526.43,-110.214C494.835,-136.895 435.785,-186.759 399.381,-217.5"/>
<polygon fill="green" stroke="green" points="396.914,-215.003 391.532,-224.129 401.43,-220.351 396.914,-215.003"/>
</g>
<!-- s001&#45;tel&#45;3550b.acme.com -->
<g id="node5" class="node"><title>s001&#45;tel&#45;3550b.acme.com</title>
<ellipse fill="none" stroke="black" cx="124" cy="-396" rx="108.187" ry="19.799"/>
<text text-anchor="middle" x="124" y="-394.1" font-family="Times New Roman,serif" font-size="14.00">s001&#45;tel&#45;3550b.acme.com</text>
</g>
<!-- s001&#45;tel&#45;3550a.acme.com -->
<g id="node6" class="node"><title>s001&#45;tel&#45;3550a.acme.com</title>
<ellipse fill="none" stroke="black" cx="363" cy="-396" rx="106.98" ry="19.799"/>
<text text-anchor="middle" x="363" y="-394.1" font-family="Times New Roman,serif" font-size="14.00">s001&#45;tel&#45;3550a.acme.com</text>
</g>
<!-- s001&#45;tel&#45;3550b.acme.com&#45;&gt;s001&#45;tel&#45;3550a.acme.com -->
<g id="edge6" class="edge"><title>s001&#45;tel&#45;3550b.acme.com&#45;&gt;s001&#45;tel&#45;3550a.acme.com</title>
<path fill="none" stroke="black" d="M232.297,-396C240.125,-396 247.954,-396 255.783,-396"/>
</g>
<!-- s001&#45;sun&#45;3550a.acme.com -->
<g id="node8" class="node"><title>s001&#45;sun&#45;3550a.acme.com</title>
<ellipse fill="none" stroke="black" cx="238" cy="-320" rx="111.016" ry="19.799"/>
<text text-anchor="middle" x="238" y="-318.1" font-family="Times New Roman,serif" font-size="14.00">s001&#45;sun&#45;3550a.acme.com</text>
</g>
<!-- s001&#45;tel&#45;3550a.acme.com&#45;&gt;s001&#45;sun&#45;3550a.acme.com -->
<g id="edge18" class="edge"><title>s001&#45;tel&#45;3550a.acme.com&#45;&gt;s001&#45;sun&#45;3550a.acme.com</title>
<path fill="none" stroke="black" d="M331.457,-376.822C312.653,-365.389 288.846,-350.915 269.967,-339.436"/>
</g>
<!-- s001&#45;tel&#45;3550a.acme.com&#45;&gt;s001&#45;oli&#45;3750ab.acme.com -->
<g id="edge8" class="edge"><title>s001&#45;tel&#45;3550a.acme.com&#45;&gt;s001&#45;oli&#45;3750ab.acme.com</title>
<path fill="none" stroke="black" d="M363.664,-375.816C364.62,-346.743 366.375,-293.386 367.333,-264.268"/>
</g>
<!-- s001&#45;sun&#45;3550a.acme.com&#45;&gt;s001&#45;oli&#45;3750ab.acme.com -->
<!-- s001&#45;sun&#45;3550b.acme.com -->
<g id="node18" class="node"><title>s001&#45;sun&#45;3550b.acme.com</title>
<ellipse fill="none" stroke="black" cx="238" cy="-168" rx="111.222" ry="19.799"/>
<text text-anchor="middle" x="238" y="-166.1" font-family="Times New Roman,serif" font-size="14.00">s001&#45;sun&#45;3550b.acme.com</text>
</g>
<!-- s001&#45;sun&#45;3550a.acme.com&#45;&gt;s001&#45;sun&#45;3550b.acme.com -->
<g id="edge20" class="edge"><title>s001&#45;sun&#45;3550a.acme.com&#45;&gt;s001&#45;sun&#45;3550b.acme.com</title>
<path fill="none" stroke="black" d="M238,-299.816C238,-270.743 238,-217.386 238,-188.268"/>
</g>
<!-- s001&#45;ken&#45;4506a.acme.com&#45;&gt;s001&#45;tel&#45;3550b.acme.com -->
<g id="edge12" class="edge"><title>s001&#45;ken&#45;4506a.acme.com&#45;&gt;s001&#45;tel&#45;3550b.acme.com</title>
<path fill="none" stroke="black" d="M122.97,-112.124C121.045,-122.745 118.956,-136.025 118,-148 111.208,-233.063 113.448,-254.788 118,-340 118.636,-351.912 120.029,-365.189 121.312,-375.824"/>
</g>
<!-- s001&#45;ken&#45;4506b.acme.com -->
<g id="node11" class="node"><title>s001&#45;ken&#45;4506b.acme.com</title>
<ellipse fill="none" stroke="black" cx="368" cy="-92" rx="111.93" ry="19.799"/>
<text text-anchor="middle" x="368" y="-90.1" font-family="Times New Roman,serif" font-size="14.00">s001&#45;ken&#45;4506b.acme.com</text>
</g>
<!-- s001&#45;ken&#45;4506a.acme.com&#45;&gt;s001&#45;ken&#45;4506b.acme.com -->
<g id="edge28" class="edge"><title>s001&#45;ken&#45;4506a.acme.com&#45;&gt;s001&#45;ken&#45;4506b.acme.com</title>
<path fill="none" stroke="blue" d="M209.373,-105.498C231.314,-107.227 253.256,-107.463 275.197,-106.208"/>
<polygon fill="blue" stroke="blue" points="275.538,-109.693 285.279,-105.526 275.065,-102.709 275.538,-109.693"/>
</g>
<!-- s001&#45;ken&#45;4506a.acme.com&#45;&gt;s001&#45;ken&#45;4506b.acme.com -->
<g id="edge10" class="edge"><title>s001&#45;ken&#45;4506a.acme.com&#45;&gt;s001&#45;ken&#45;4506b.acme.com</title>
<path fill="none" stroke="black" d="M209.373,-78.5017C234.675,-76.5086 259.977,-76.4995 285.279,-78.4744"/>
</g>
<!-- s001&#45;ken&#45;4506b.acme.com&#45;&gt;192.168.0.10 -->
<g id="edge40" class="edge"><title>s001&#45;ken&#45;4506b.acme.com&#45;&gt;192.168.0.10</title>
<path fill="none" stroke="green" d="M336.525,-72.7505C320.927,-63.2115 301.956,-51.6096 285.5,-41.5452"/>
<polygon fill="green" stroke="green" points="287.01,-38.3665 276.653,-36.135 283.358,-44.3383 287.01,-38.3665"/>
</g>
<!-- s001&#45;ken&#45;4506b.acme.com&#45;&gt;s001&#45;oli&#45;3750ab.acme.com -->
<g id="edge30" class="edge"><title>s001&#45;ken&#45;4506b.acme.com&#45;&gt;s001&#45;oli&#45;3750ab.acme.com</title>
<path fill="none" stroke="blue" d="M377.535,-112.268C382.269,-138.315 382.764,-183.758 379.021,-213.863"/>
<polygon fill="blue" stroke="blue" points="375.55,-213.405 377.52,-223.816 382.472,-214.449 375.55,-213.405"/>
</g>
<!-- s001&#45;ken&#45;4506b.acme.com&#45;&gt;s001&#45;oli&#45;3750ab.acme.com -->
<g id="edge16" class="edge"><title>s001&#45;ken&#45;4506b.acme.com&#45;&gt;s001&#45;oli&#45;3750ab.acme.com</title>
<path fill="none" stroke="black" d="M368,-112.268C368,-141.386 368,-194.743 368,-223.816"/>
</g>
<!-- s001&#45;ken&#45;4506b.acme.com&#45;&gt;s001&#45;sun&#45;3550b.acme.com -->
<g id="edge14" class="edge"><title>s001&#45;ken&#45;4506b.acme.com&#45;&gt;s001&#45;sun&#45;3550b.acme.com</title>
<path fill="none" stroke="black" d="M335.206,-111.172C315.501,-122.692 290.512,-137.301 270.804,-148.822"/>
</g>
<!-- s001&#45;oli&#45;3750ab.acme.com&#45;&gt;s001&#45;ken&#45;4506b.acme.com -->
<g id="edge38" class="edge"><title>s001&#45;oli&#45;3750ab.acme.com&#45;&gt;s001&#45;ken&#45;4506b.acme.com</title>
<path fill="none" stroke="green" d="M358.48,-223.816C353.738,-197.81 353.233,-152.371 356.967,-122.233"/>
<polygon fill="green" stroke="green" points="360.44,-122.677 358.465,-112.268 353.518,-121.637 360.44,-122.677"/>
</g>
<!-- s001&#45;oli&#45;3750ab.acme.com&#45;&gt;s001&#45;sun&#45;3550b.acme.com -->
<!-- 10.13.255.14 -->
<g id="node28" class="node"><title>10.13.255.14</title>
<ellipse fill="none" stroke="black" cx="558" cy="-168" rx="62.2254" ry="19.799"/>
<text text-anchor="middle" x="558" y="-166.1" font-family="Times New Roman,serif" font-size="14.00">10.13.255.14</text>
</g>
<!-- s001&#45;oli&#45;3750ab.acme.com&#45;&gt;10.13.255.14 -->
<g id="edge32" class="edge"><title>s001&#45;oli&#45;3750ab.acme.com&#45;&gt;10.13.255.14</title>
<path fill="none" stroke="blue" d="M413.994,-225.603C442.806,-214.078 479.9,-199.24 509.224,-187.51"/>
<polygon fill="blue" stroke="blue" points="510.863,-190.624 518.848,-183.661 508.263,-184.125 510.863,-190.624"/>
</g>
<!-- 10.13.255.14&#45;&gt;10.13.36.10 -->
<g id="edge34" class="edge"><title>10.13.255.14&#45;&gt;10.13.36.10</title>
<path fill="none" stroke="blue" d="M555.32,-147.633C554.214,-139.227 552.913,-129.341 551.718,-120.253"/>
<polygon fill="blue" stroke="blue" points="555.155,-119.546 550.38,-110.088 548.215,-120.459 555.155,-119.546"/>
</g>
</g>
</svg>
